HIERARCHY
ROOT root
{
	OFFSET	0	13.1	24.9
	CHANNELS 6  Xposition Yposition Zposition Xrotation Yrotation Zrotation
	JOINT spine_1
	{
		OFFSET	0	9.99999	0
		CHANNELS 3  Xrotation Yrotation Zrotation
		JOINT spine_2
		{
			OFFSET	0	112	-10
			CHANNELS 3  Xrotation Yrotation Zrotation
			JOINT spine_3
			{
				OFFSET	0	206.5	19.3
				CHANNELS 3  Xrotation Yrotation Zrotation
				JOINT spine_4
				{
					OFFSET	0	110.4	14.6
					CHANNELS 3  Xrotation Yrotation Zrotation
					JOINT neck_1
					{
						OFFSET	0	71.8	-50.3
						CHANNELS 3  Xrotation Yrotation Zrotation
						JOINT neck_2
						{
							OFFSET	0	86.2	-25.8
							CHANNELS 3  Xrotation Yrotation Zrotation
							JOINT head_ee
							{
								OFFSET	0	179.8	-8.7
								CHANNELS 3  Xrotation Yrotation Zrotation
								End Site
								{
									OFFSET	1	0	0
								}
							}
						}
					}
					JOINT left_clavicle
					{
						OFFSET	-43.2	22.4	-70.8
						CHANNELS 3  Xrotation Yrotation Zrotation
						JOINT left_shoulder
						{
							OFFSET	-93.9	-5.79999	48.7
							CHANNELS 3  Xrotation Yrotation Zrotation
							JOINT left_elbow
							{
								OFFSET	-291.4	-30.8	15.2
								CHANNELS 3  Xrotation Yrotation Zrotation
								JOINT left_lowarm_twist
								{
									OFFSET	-110.7	-3.89999	13.6
									CHANNELS 3  Xrotation Yrotation Zrotation
									JOINT left_hand
									{
										OFFSET	-110.7	-3.89999	13.6
										CHANNELS 3  Xrotation Yrotation Zrotation
										JOINT left_ee
										{
											OFFSET	-80.8	-5.10001	12.1
											CHANNELS 3  Xrotation Yrotation Zrotation
											End Site
											{
												OFFSET	1	0	0
											}
										}
									}
								}
							}
						}
					}
					JOINT right_clavicle
					{
						OFFSET	43.2	22.4	-70.8
						CHANNELS 3  Xrotation Yrotation Zrotation
						JOINT right_shoulder
						{
							OFFSET	93.9	-5.79999	48.7
							CHANNELS 3  Xrotation Yrotation Zrotation
							JOINT right_elbow
							{
								OFFSET	291.4	-30.8	15.2
								CHANNELS 3  Xrotation Yrotation Zrotation
								JOINT right_lowarm_twist
								{
									OFFSET	110.7	-3.89999	13.6
									CHANNELS 3  Xrotation Yrotation Zrotation
									JOINT right_hand
									{
										OFFSET	110.7	-3.89999	13.6
										CHANNELS 3  Xrotation Yrotation Zrotation
										JOINT right_ee
										{
											OFFSET	80.8	-5.10001	12.1
											CHANNELS 3  Xrotation Yrotation Zrotation
											End Site
											{
												OFFSET	1	0	0
											}
										}
									}
								}
							}
						}
					}
				}
			}
		}
	}
	JOINT left_hip
	{
		OFFSET	-82.8	-127.5	0.300001
		CHANNELS 3  Xrotation Yrotation Zrotation
		JOINT left_knee
		{
			OFFSET	-28.2	-396.7	2.2
			CHANNELS 3  Xrotation Yrotation Zrotation
			JOINT left_ankle
			{
				OFFSET	-11.7	-411.3	35.4
				CHANNELS 3  Xrotation Yrotation Zrotation
				JOINT left_toes
				{
					OFFSET	0	-60	-88.6
					CHANNELS 3  Xrotation Yrotation Zrotation
					JOINT left_foot_ee
					{
						OFFSET	-22.5	-16.5	-42.2
						CHANNELS 3  Xrotation Yrotation Zrotation
						End Site
						{
							OFFSET	1	0	0
						}
					}
				}
			}
		}
	}
	JOINT right_hip
	{
		OFFSET	82.8	-127.5	0.300001
		CHANNELS 3  Xrotation Yrotation Zrotation
		JOINT right_knee
		{
			OFFSET	28.2	-396.7	2.2
			CHANNELS 3  Xrotation Yrotation Zrotation
			JOINT right_ankle
			{
				OFFSET	11.7	-411.3	35.4
				CHANNELS 3  Xrotation Yrotation Zrotation
				JOINT right_toes
				{
					OFFSET	0	-60	-88.6
					CHANNELS 3  Xrotation Yrotation Zrotation
					JOINT right_foot_ee
					{
						OFFSET	22.5	-16.5	-42.2
						CHANNELS 3  Xrotation Yrotation Zrotation
						End Site
						{
							OFFSET	1	0	0
						}
					}
				}
			}
		}
	}
}
MOTION
Frames: 12
Frame Time: 0.02
1177.12 709.589 -1340.98 18.6511 67.5398 -17.0445 -4.3878 -0.198861 0.41205 -4.38774 -0.224678 0.398561 -4.38931 -0.32875 0.318206 -4.38935 -0.27437 0.366132 -1.13071 7.90349 0.56799 -1.01866 13.7442 1.54374 -0.0 0.0 -0.0 6.61859 -5.88615 12.7337 -20.2205 -4.54562 65.3689 0.381617 -10.7052 0.035755 -12.9562 -0.632222 1.52766 3.38776 2.9412 24.4428 -0.0 0.0 -0.0 8.58235 -10.7551 -16.1788 12.8753 25.2256 -56.4148 2.81403 54.3355 -1.44443 21.9085 -0.244852 2.77089 2.04797 6.81171 -10.9985 0.0 0.0 0.0 22.0772 -21.3022 1.3543 -1.62055 0.0633256 0.240626 -15.8475 22.006 2.44238 -22.0271 0.0 0.0 -0.0 0.0 -0.0 -17.2518 -8.9674 -4.10877 -10.7016 -0.290575 -1.61427 41.2338 -12.9634 5.01316 -33.0664 0.0 0.0 0.0 0.0 0.0 
1149.07 706.469 -1344.43 18.4965 67.2503 -16.2451 -4.16458 -0.225163 0.341203 -4.16455 -0.246418 0.326184 -4.166 -0.328059 0.243916 -4.16597 -0.28542 0.292665 -0.0170873 8.34375 0.692337 0.125906 14.3143 1.61623 -0.0 0.0 -0.0 6.7748 -6.10295 13.0501 -20.1722 -5.13585 65.1754 0.384964 -10.7969 0.0363792 -12.7663 -0.62049 1.50637 3.4426 2.9249 24.8386 -0.0 0.0 -0.0 8.3642 -11.2601 -15.7454 10.4878 24.4933 -56.3007 2.77717 53.9771 -1.41454 21.8306 -0.245868 2.761 2.06179 6.65332 -11.1613 0.0 0.0 0.0 21.0364 -21.1878 1.17891 -3.10081 0.115193 0.461875 -14.7496 23.3908 2.28489 -22.1388 0.0 0.0 -0.0 0.0 -0.0 -18.4142 -8.93443 -3.81294 -12.28 -0.307737 -1.85583 41.7116 -12.461 5.04797 -33.1082 0.0 0.0 0.0 0.0 0.0 
1120.53 708.883 -1347.92 20.9672 67.062 -18.7044 -4.09765 -0.234238 0.507847 -4.09754 -0.266078 0.491913 -4.09983 -0.392987 0.397917 -4.09991 -0.325212 0.454988 -0.350422 8.28122 0.950167 -0.220653 14.03 1.91902 -0.0 0.0 -0.0 6.85948 -6.34772 13.2186 -19.8954 -5.91071 64.6502 0.387988 -10.8797 0.0369479 -13.4023 -0.66006 1.57751 3.24661 3.04943 23.4555 -0.0 0.0 -0.0 8.23972 -11.3459 -15.5161 7.40855 24.0941 -56.0676 2.44815 50.4839 -1.15434 21.856 -0.245538 2.76422 2.20631 6.12934 -12.3807 0.0 0.0 0.0 18.7548 -21.0117 1.60485 -4.66463 0.163755 0.696955 -14.7513 22.9744 2.28087 -21.049 0.0 0.0 -0.0 0.0 -0.0 -19.1926 -6.23108 -2.88128 -16.002 -0.32182 -2.42662 40.9075 -13.7039 4.99444 -31.7591 0.0 0.0 0.0 0.0 0.0 
1089.63 714.088 -1351.62 22.9344 66.8552 -20.8144 -4.02694 -0.269707 0.626597 -4.02678 -0.309032 0.608165 -4.03004 -0.466126 0.498091 -4.03019 -0.381613 0.565454 -0.00715601 7.31506 0.696532 0.100489 12.4727 1.51597 -0.0 0.0 -0.0 7.02306 -6.46068 13.5549 -19.293 -6.74754 64.0461 0.450837 -12.5896 0.0497317 -13.5286 -0.66801 1.59158 2.71892 2.58295 19.5029 -0.0 0.0 -0.0 7.9967 -11.7196 -15.056 4.47583 23.3289 -55.9916 2.24697 48.0568 -1.00185 21.5457 -0.249473 2.72479 2.79014 5.84711 -16.5691 0.0 0.0 0.0 16.2961 -20.5736 2.54279 -5.53201 0.187916 0.827875 -14.7766 23.2769 2.28794 -20.2908 0.0 0.0 -0.0 0.0 -0.0 -19.5794 -4.27326 -2.39328 -18.3008 -0.311991 -2.77917 40.813 -14.2356 4.99355 -30.6553 0.0 0.0 0.0 0.0 0.0 
1069.6 719.739 -1352.7 23.1452 66.6938 -21.3484 -3.90507 -0.446799 0.80413 -3.90485 -0.497061 0.774071 -3.9117 -0.691673 0.606503 -3.91173 -0.587209 0.708126 0.208043 6.38685 0.554536 0.292729 10.9134 1.25247 -0.0 0.0 -0.0 7.35193 -6.68625 14.2339 -17.0094 -7.74746 62.761 0.522391 -14.5088 0.0664975 -13.1559 -0.644637 1.55 2.25511 2.82777 16.3558 -0.0 0.0 -0.0 7.42945 -11.9937 -14.0388 1.62398 23.6651 -56.2104 2.12206 46.4242 -0.910131 21.3433 -0.251925 2.69905 3.2336 5.55872 -19.8423 0.0 0.0 0.0 14.7889 -20.1542 3.63427 -5.91007 0.197825 0.885047 -11.2457 24.4057 1.74434 -18.9801 0.0 0.0 -0.0 0.0 -0.0 -19.0918 -2.74524 -2.11338 -19.954 -0.296183 -3.03233 41.0631 -13.1137 5.00029 -29.8664 0.0 0.0 0.0 0.0 0.0 
1044.95 727.404 -1356.26 25.2241 66.2669 -23.237 -3.89593 -0.341691 0.666111 -3.89576 -0.383384 0.64302 -3.90012 -0.546086 0.512103 -3.90019 -0.458357 0.591919 2.06724 3.77971 -1.41388 2.13796 7.82532 -1.25427 -0.0 0.0 -0.0 7.47867 -6.88149 14.4942 -16.4498 -9.68345 61.8594 0.611324 -16.8481 0.0905356 -13.1609 -0.644945 1.55056 1.71932 4.19602 13.2102 -0.0 0.0 -0.0 6.92585 -11.7558 -13.1711 -0.757872 23.6315 -56.7427 1.92286 43.6026 -0.769199 20.765 -0.258429 2.62546 2.86492 4.15861 -17.8174 0.0 0.0 0.0 12.8229 -19.7845 4.60796 -7.02237 0.224789 1.05361 -4.4536 24.862 0.685541 -16.8998 0.0 0.0 -0.0 0.0 -0.0 -18.2517 -1.58489 -2.14635 -21.1498 -0.280201 -3.2151 40.8967 -12.4664 4.97806 -29.9645 0.0 0.0 0.0 0.0 0.0 
1022.95 724.545 -1362.43 25.6285 65.2522 -23.2744 -3.79637 -0.00801185 0.587072 -3.79618 -0.0453519 0.585373 -3.79642 -0.204272 0.550447 -3.79682 -0.114777 0.575799 3.63452 1.76944 -0.930573 3.65614 3.86822 -0.932177 -0.0 0.0 -0.0 7.60539 -7.54241 14.7444 -15.9686 -12.5481 60.4536 0.746292 -20.2889 0.133534 -13.1359 -0.643389 1.54777 1.444 5.37775 11.8049 -0.0 0.0 -0.0 6.27042 -11.2901 -12.0457 -2.69281 23.6121 -57.325 1.77753 41.3612 -0.67103 20.4435 -0.261723 2.58453 2.49025 1.88625 -16.1253 0.0 0.0 0.0 10.3833 -21.528 4.03334 -8.14105 0.2486 1.22362 7.52169 24.2287 -1.12243 -14.4299 0.0 0.0 -0.0 0.0 -0.0 -17.1742 -0.515541 -1.72462 -25.7969 -0.181973 -3.92128 40.9754 -11.619 4.97565 -28.9203 0.0 0.0 0.0 0.0 0.0 
999.666 728.26 -1366.07 23.7013 64.3654 -20.9541 -3.78015 0.00883525 0.547531 -3.77999 -0.026023 0.546984 -3.78002 -0.174999 0.518888 -3.78039 -0.0908552 0.540013 4.76546 0.19538 -1.24894 4.7739 1.42469 -1.41278 -0.0 0.0 -0.0 7.82471 -8.37242 15.1864 -13.8834 -14.0339 59.5993 0.820419 -22.1173 0.160347 -12.8405 -0.625068 1.5147 1.04324 6.42659 9.53571 -0.0 0.0 -0.0 5.90353 -11.1526 -11.41 -4.4627 23.5425 -57.9027 1.67231 39.6356 -0.602692 19.3313 -0.271346 2.4428 2.26582 0.843267 -14.985 0.0 0.0 0.0 9.11511 -20.7814 3.83789 -8.98924 0.264438 1.35282 12.4508 24.091 -1.82822 -13.154 0.0 0.0 -0.0 0.0 -0.0 -16.6573 0.266351 -1.42005 -26.7558 -0.154593 -4.06588 40.7171 -10.6053 4.9438 -28.2084 0.0 0.0 0.0 0.0 0.0 
982.065 733.745 -1370.65 23.541 63.3641 -20.0609 -3.81851 0.0278502 0.34631 -3.81845 0.00575723 0.347381 -3.81832 -0.0899309 0.335588 -3.81847 -0.0358028 0.345579 3.40622 -1.2362 -0.272676 3.40967 -1.91334 -0.388013 -0.0 0.0 -0.0 7.85717 -8.94534 15.24 -11.5002 -15.8719 57.8989 0.986798 -26.0503 0.228282 -12.8722 -0.627024 1.51825 0.857898 6.47312 8.32806 -0.0 0.0 -0.0 5.57941 -10.4936 -10.855 -5.96017 23.8013 -58.0891 1.53399 37.2284 -0.516694 18.6626 -0.275807 2.3575 2.08289 -0.161856 -14.1223 0.0 0.0 0.0 7.19789 -21.1029 4.1988 -10.0797 0.281987 1.51923 18.1246 24.6352 -2.61419 -11.7962 0.0 0.0 -0.0 0.0 -0.0 -15.652 0.831833 -1.30649 -28.5761 -0.0959646 -4.33909 39.504 -9.91696 4.83207 -28.0634 0.0 0.0 0.0 0.0 0.0 
965.88 736.135 -1374.74 25.1301 62.606 -21.2236 -4.05505 -0.0142948 0.258013 -4.05501 -0.0306838 0.25658 -4.0551 -0.100999 0.237853 -4.05518 -0.0621671 0.250819 2.89166 -2.67709 0.620999 2.92228 -5.19817 0.498694 -0.0 0.0 -0.0 7.76659 -10.1432 15.0102 -10.2526 -17.3525 56.749 1.13224 -29.2862 0.295844 -12.9536 -0.632061 1.52737 0.746511 5.91423 7.37351 -0.0 0.0 -0.0 5.37115 -9.82011 -10.4946 -7.34508 23.9581 -58.6019 1.40381 34.813 -0.44012 18.0185 -0.279161 2.27531 1.92701 -1.03329 -13.3963 0.0 0.0 0.0 5.21064 -21.3389 4.16092 -10.6947 0.290485 1.6132 19.8354 26.8291 -2.87802 -11.5842 0.0 0.0 -0.0 0.0 -0.0 -14.3181 1.04823 -1.36866 -29.5415 -0.0613546 -4.4832 38.6459 -9.45728 4.75207 -28.1385 0.0 0.0 0.0 0.0 0.0 
955.55 736.054 -1376.6 25.4722 62.2687 -21.0697 -4.04066 0.0178913 0.0829251 -4.04065 0.0125783 0.0838956 -4.04063 -0.0112881 0.0840789 -4.04064 0.00213229 0.0848064 2.35497 -3.28807 1.00904 2.40454 -6.61213 0.860869 -0.0 0.0 -0.0 7.97222 -10.2062 15.4471 -9.24526 -18.3398 55.2699 1.16108 -29.905 0.310088 -12.9475 -0.631681 1.52668 0.633833 6.15874 6.7275 -0.0 0.0 -0.0 5.41152 -8.9629 -10.5693 -8.15985 24.0044 -58.405 1.25154 31.7966 -0.356484 17.5342 -0.281076 2.21348 1.72357 -2.21204 -12.4702 0.0 0.0 0.0 3.83305 -21.5086 4.3057 -11.8993 0.304206 1.79753 25.4252 25.608 -3.57348 -9.93509 0.0 0.0 -0.0 0.0 -0.0 -12.907 1.17164 -0.814892 -31.5457 0.0182358 -4.78046 37.8537 -8.93778 4.67681 -28.1985 0.0 0.0 0.0 0.0 0.0 
940.612 739.078 -1379.81 25.9055 61.8687 -21.208 -4.02718 -0.0259109 -0.131497 -4.02718 -0.0174909 -0.13288 -4.02712 0.0201829 -0.132497 -4.02714 -0.000995903 -0.134022 1.59476 -4.27005 0.809667 1.66029 -8.1998 0.519717 -0.0 0.0 -0.0 8.02028 -10.593 15.5371 -8.38773 -19.1796 54.5105 1.2509 -31.7836 0.356148 -12.5341 -0.606245 1.4803 0.494259 5.54677 5.56443 -0.0 0.0 -0.0 5.0656 -8.99314 -9.95387 -9.74602 23.8945 -58.2742 1.18095 30.3269 -0.32006 16.8776 -0.282836 2.12964 1.5161 -3.86952 -11.7096 0.0 0.0 0.0 3.16447 -21.552 4.59159 -12.9595 0.313074 1.95994 26.7428 26.4641 -3.75497 -9.77386 0.0 0.0 -0.0 0.0 -0.0 -13.2274 1.40385 -0.288256 -32.9566 0.0804898 -4.98801 37.4159 -8.46474 4.63407 -28.2046 0.0 0.0 0.0 0.0 0.0 
